# xmcd
#
# Track frame offsets: 
#        150
#        22290
#        40645
#        62890
#        84117
#        101297
#        121907
#        138257
#
# Disc length: 2345 seconds
#
# Revision: 2
# Processed by: cddbd v1.5.1PL0 Copyright (c) Steve Scherf et al.
# Submitted via: ExactAudioCopy v0.95a4
#
DISCID=5d092708
DTITLE=Jennifer Holliday - Get Close To My Love
DYEAR=1987
DGENRE=R&B
TTITLE0=New At It
TTITLE1=He Ain't Special (He's Just The One I Love)
TTITLE2=Get Close To My Love
TTITLE3=Read It In My Eyes
TTITLE4=Ain't It Just Like Love
TTITLE5=Heart On The Line
TTITLE6=I Never Thought I'd Fall In Love Again
TTITLE7=Givin' Up
EXTD=
EXTT0=
EXTT1=
EXTT2=
EXTT3=
EXTT4=
EXTT5=
EXTT6=
EXTT7=
PLAYORDER=
